<?xml version="1.0" standalone="no"?>
<!DOCTYPE svg PUBLIC "-//W3C//DTD SVG 20010904//EN"
 "http://www.w3.org/TR/2001/REC-SVG-20010904/DTD/svg10.dtd">
<svg version="1.0" xmlns="http://www.w3.org/2000/svg"
 width="500.000000pt" height="500.000000pt" viewBox="0 0 500.000000 500.000000"
 preserveAspectRatio="xMidYMid meet">

<g transform="translate(0.000000,500.000000) scale(0.100000,-0.100000)"
fill="#000000" stroke="none">
<path d="M2666 3520 c-59 -23 -118 -78 -144 -134 -17 -35 -41 -161 -68 -349
-3 -27 -10 -45 -14 -40 -10 11 -43 116 -79 252 -17 62 -37 124 -46 137 -69
105 -234 58 -298 -85 -30 -67 -26 -148 18 -331 48 -207 73 -357 81 -492 6 -94
5 -110 -7 -102 -8 4 -34 22 -58 38 -110 74 -231 96 -316 57 -65 -29 -141 -126
-159 -201 -16 -67 95 -140 271 -181 l98 -22 116 -117 117 -117 -5 -45 c-8 -74
32 -135 122 -184 48 -26 135 -39 265 -39 153 0 195 13 260 80 31 32 35 42 33
86 -1 47 2 53 39 87 136 123 228 344 228 552 0 131 21 260 81 495 77 300 80
315 68 352 -13 42 -57 73 -102 73 -91 0 -137 -45 -222 -215 -38 -75 -73 -139
-78 -142 -13 -8 -3 219 14 327 6 40 9 102 7 137 -3 53 -9 68 -33 93 -28 29
-79 50 -120 49 -11 0 -42 -9 -69 -19z"/>
</g>
</svg>
