<?xml version="1.0" standalone="no"?>
<!DOCTYPE svg PUBLIC "-//W3C//DTD SVG 20010904//EN"
 "http://www.w3.org/TR/2001/REC-SVG-20010904/DTD/svg10.dtd">
<svg version="1.0" xmlns="http://www.w3.org/2000/svg"
 width="500.000000pt" height="500.000000pt" viewBox="0 0 500.000000 500.000000"
 preserveAspectRatio="xMidYMid meet">

<g transform="translate(0.000000,500.000000) scale(0.100000,-0.100000)"
fill="#000000" stroke="none">
<path d="M2424 3304 c-98 -35 -152 -112 -234 -334 -23 -63 -55 -149 -71 -191
l-29 -76 -93 1 c-108 1 -164 -20 -233 -90 -48 -48 -107 -164 -124 -244 -17
-85 -23 -238 -11 -310 10 -62 10 -65 -15 -91 -52 -54 -51 -144 2 -235 37 -65
174 -186 258 -229 61 -31 82 -37 138 -37 75 0 109 16 128 63 7 16 22 31 34 33
11 2 53 9 91 16 226 37 482 253 554 468 25 74 28 217 6 307 -8 33 -14 67 -15
77 0 21 114 167 230 293 113 122 130 149 130 201 0 91 -89 158 -210 158 -94
-1 -134 -25 -287 -177 -73 -73 -133 -127 -133 -120 0 16 55 171 96 271 45 108
45 158 3 206 -48 55 -130 70 -215 40z"/>
</g>
</svg>
