<?xml version="1.0" standalone="no"?>
<!DOCTYPE svg PUBLIC "-//W3C//DTD SVG 20010904//EN"
 "http://www.w3.org/TR/2001/REC-SVG-20010904/DTD/svg10.dtd">
<svg version="1.0" xmlns="http://www.w3.org/2000/svg"
 width="500.000000pt" height="500.000000pt" viewBox="0 0 500.000000 500.000000"
 preserveAspectRatio="xMidYMid meet">

<g transform="translate(0.000000,500.000000) scale(0.100000,-0.100000)"
fill="#000000" stroke="none">
<path d="M2360 2949 c-85 -26 -139 -100 -148 -205 l-4 -61 -52 -18 c-69 -25
-156 -112 -180 -180 -29 -83 -32 -188 -8 -283 25 -97 87 -234 137 -302 30 -41
34 -53 26 -69 -26 -48 -1 -130 56 -182 63 -59 203 -107 358 -124 72 -7 179 21
212 57 28 29 45 76 38 99 -5 13 8 27 53 58 87 58 174 159 225 259 59 114 84
199 99 333 28 250 -39 435 -164 456 -28 4 -37 12 -47 38 -18 51 -48 83 -102
110 -82 42 -205 30 -265 -26 l-21 -20 -49 30 c-56 35 -113 45 -164 30z"/>
</g>
</svg>
